<svg width="280" height="280" viewBox="0 0 280 280" fill="none" xmlns="http://www.w3.org/2000/svg">
<circle cx="140" cy="140" r="140" fill="url(#paint0_linear_302_44)"/>
<circle cx="140.5" cy="171.5" r="80.5" fill="#5ED4E3" stroke="white" stroke-width="10"/>
<circle cx="140.5" cy="95.5" r="58.5" fill="#5ED4E3" stroke="white" stroke-width="10"/>
<path d="M165.854 189.571C166.203 190.478 165.907 191.501 165.188 192.166L160.612 196.321C160.728 197.196 160.792 198.093 160.792 199C160.792 199.907 160.728 200.804 160.612 201.679L165.188 205.834C165.907 206.499 166.203 207.522 165.854 208.429C165.389 209.684 164.829 210.897 164.195 212.046L163.698 212.901C163 214.061 162.218 215.158 161.362 216.202C160.728 216.951 159.703 217.214 158.773 216.919L152.887 215.042C151.471 216.128 149.811 217.035 148.237 217.731L146.916 223.754C146.704 224.703 145.964 225.378 144.992 225.631C143.534 225.873 142.033 226 140.406 226C138.968 226 137.468 225.873 136.009 225.631C135.037 225.378 134.297 224.703 134.086 223.754L132.765 217.731C131.095 217.035 129.531 216.128 128.115 215.042L122.233 216.919C121.298 217.214 120.268 216.951 119.642 216.202C118.785 215.158 118.003 214.061 117.306 212.901L116.811 212.046C116.17 210.897 115.612 209.684 115.144 208.429C114.801 207.522 115.09 206.499 115.815 205.834L120.386 201.679C120.27 200.804 120.21 199.907 120.21 199C120.21 198.093 120.27 197.196 120.386 196.321L115.815 192.166C115.09 191.501 114.801 190.489 115.144 189.571C115.612 188.316 116.171 187.103 116.811 185.954L117.305 185.099C118.003 183.939 118.785 182.842 119.642 181.803C120.268 181.049 121.298 180.788 122.233 181.085L128.115 182.958C129.531 181.868 131.095 180.961 132.765 180.272L134.086 174.25C134.297 173.292 135.037 172.532 136.009 172.37C137.468 172.127 138.968 172 140.501 172C142.033 172 143.534 172.127 144.992 172.37C145.964 172.532 146.704 173.292 146.916 174.25L148.237 180.272C149.811 180.961 151.471 181.868 152.887 182.958L158.773 181.085C159.703 180.788 160.728 181.049 161.362 181.803C162.218 182.842 163 183.939 163.698 185.099L164.195 185.954C164.829 187.103 165.389 188.316 165.854 189.571V189.571ZM140.501 207.438C145.172 207.438 148.955 203.662 148.955 198.905C148.955 194.338 145.172 190.468 140.501 190.468C135.83 190.468 132.046 194.338 132.046 198.905C132.046 203.662 135.83 207.438 140.501 207.438Z" fill="white"/>
<defs>
<linearGradient id="paint0_linear_302_44" x1="140" y1="0" x2="140" y2="280" gradientUnits="userSpaceOnUse">
<stop stop-color="#6B8ADA"/>
<stop offset="1" stop-color="#5ED4E3"/>
</linearGradient>
</defs>
</svg>
