<svg width="1536" height="792" viewBox="0 0 1536 792" fill="none" xmlns="http://www.w3.org/2000/svg">
<g clip-path="url(#clip0_200_2)">
<rect width="1536" height="792" fill="url(#paint0_linear_200_2)"/>
<circle cx="103" cy="719" r="269" fill="url(#paint1_radial_200_2)" fill-opacity="0.57"/>
<circle cx="1344.5" cy="149.5" r="318.5" fill="url(#paint2_radial_200_2)" fill-opacity="0.57"/>
<path d="M1736.5 149C1736.5 365.209 1561.01 540.5 1344.5 540.5C1127.99 540.5 952.5 365.209 952.5 149C952.5 -67.2095 1127.99 -242.5 1344.5 -242.5C1561.01 -242.5 1736.5 -67.2095 1736.5 149Z" stroke="#72F9E0" stroke-opacity="0.21" stroke-width="17"/>
<circle cx="1345" cy="149" r="148.5" stroke="#72D0F9" stroke-opacity="0.21" stroke-width="17"/>
<circle cx="178.5" cy="29.5" r="75.5" fill="url(#paint3_radial_200_2)" fill-opacity="0.57"/>
<circle cx="178.5" cy="29.5" r="30" stroke="#72F9E0" stroke-opacity="0.21" stroke-width="17"/>
<circle cx="102.5" cy="718.5" r="345" stroke="#72F9E0" stroke-opacity="0.21" stroke-width="17"/>
<circle cx="103" cy="719" r="137.5" stroke="#72D0F9" stroke-opacity="0.21" stroke-width="17"/>
</g>
<defs>
<linearGradient id="paint0_linear_200_2" x1="768" y1="0" x2="768" y2="792" gradientUnits="userSpaceOnUse">
<stop stop-color="#1E3054"/>
<stop offset="1" stop-color="#1C5959"/>
</linearGradient>
<radialGradient id="paint1_radial_200_2" cx="0" cy="0" r="1" gradientUnits="userSpaceOnUse" gradientTransform="translate(103 719) rotate(90) scale(269)">
<stop stop-color="#445A92" stop-opacity="0"/>
<stop offset="1" stop-color="#445A92"/>
</radialGradient>
<radialGradient id="paint2_radial_200_2" cx="0" cy="0" r="1" gradientUnits="userSpaceOnUse" gradientTransform="translate(1344.5 149.5) rotate(90) scale(318.5)">
<stop stop-color="#445A92" stop-opacity="0"/>
<stop offset="1" stop-color="#445A92"/>
</radialGradient>
<radialGradient id="paint3_radial_200_2" cx="0" cy="0" r="1" gradientUnits="userSpaceOnUse" gradientTransform="translate(178.5 29.5) rotate(90) scale(75.5)">
<stop stop-color="#445A92" stop-opacity="0"/>
<stop offset="1" stop-color="#445A92"/>
</radialGradient>
<clipPath id="clip0_200_2">
<rect width="1536" height="792" fill="white"/>
</clipPath>
</defs>
</svg>
