<svg width="280" height="280" viewBox="0 0 280 280" fill="none" xmlns="http://www.w3.org/2000/svg">
<circle cx="140" cy="140" r="140" fill="url(#paint0_linear_302_45)"/>
<circle cx="140.5" cy="171.5" r="80.5" fill="#B1DF50" stroke="white" stroke-width="10"/>
<circle cx="140.5" cy="95.5" r="58.5" fill="#B1DF50" stroke="white" stroke-width="10"/>
<path d="M163.45 184H117.55C116.142 184 115 185.142 115 186.55V212.05C115 213.458 116.142 214.6 117.55 214.6H163.45C164.858 214.6 166 213.458 166 212.05V186.55C166 185.142 164.858 184 163.45 184ZM118.825 210.775V205.675C121.642 205.675 123.925 207.958 123.925 210.775H118.825ZM118.825 192.925V187.825H123.925C123.925 190.642 121.642 192.925 118.825 192.925ZM140.5 206.95C136.979 206.95 134.125 203.524 134.125 199.3C134.125 195.075 136.979 191.65 140.5 191.65C144.021 191.65 146.875 195.075 146.875 199.3C146.875 203.526 144.02 206.95 140.5 206.95ZM162.175 210.775H157.075C157.075 207.958 159.358 205.675 162.175 205.675V210.775ZM162.175 192.925C159.358 192.925 157.075 190.642 157.075 187.825H162.175V192.925Z" fill="white"/>
<defs>
<linearGradient id="paint0_linear_302_45" x1="140" y1="0" x2="140" y2="280" gradientUnits="userSpaceOnUse">
<stop stop-color="#6BDA9E"/>
<stop offset="1" stop-color="#B1DF50"/>
</linearGradient>
</defs>
</svg>
