<svg width="280" height="280" viewBox="0 0 280 280" fill="none" xmlns="http://www.w3.org/2000/svg">
<circle cx="140" cy="140" r="140" fill="url(#paint0_linear_302_50)"/>
<circle cx="140.5" cy="171.5" r="80.5" fill="#EC7BEE" stroke="white" stroke-width="10"/>
<circle cx="140.5" cy="95.5" r="58.5" fill="#EC7BEE" stroke="white" stroke-width="10"/>
<path d="M140.5 179C126.417 179 115 190.417 115 204.5C115 209.175 116.262 213.554 118.458 217.321C118.955 218.173 119.902 218.667 120.888 218.667H160.112C161.098 218.667 162.045 218.173 162.542 217.321C164.738 213.554 166 209.175 166 204.5C166 190.417 154.583 179 140.5 179ZM140.5 184.667C141.802 184.667 142.853 185.564 143.185 186.761C143.086 186.961 142.951 187.135 142.879 187.351L142.063 189.801C141.609 190.11 141.091 190.333 140.501 190.333C138.936 190.333 137.668 189.065 137.668 187.5C137.668 185.935 138.935 184.667 140.5 184.667ZM123.5 210.167C121.935 210.167 120.667 208.898 120.667 207.333C120.667 205.769 121.935 204.5 123.5 204.5C125.065 204.5 126.333 205.769 126.333 207.333C126.333 208.898 125.065 210.167 123.5 210.167ZM127.75 196C126.185 196 124.917 194.731 124.917 193.167C124.917 191.602 126.185 190.333 127.75 190.333C129.315 190.333 130.583 191.602 130.583 193.167C130.583 194.731 129.315 196 127.75 196ZM149.599 189.589L144.169 205.88C145.381 206.92 146.167 208.444 146.167 210.167C146.167 211.204 145.867 212.163 145.38 213H135.62C135.133 212.163 134.833 211.204 134.833 210.167C134.833 207.162 137.18 204.728 140.137 204.536L145.568 188.244C145.937 187.132 147.138 186.522 148.256 186.901C149.369 187.272 149.97 188.476 149.599 189.589V189.589ZM150.897 194.653L152.272 190.532C152.579 190.417 152.903 190.334 153.25 190.334C154.815 190.334 156.083 191.603 156.083 193.168C156.083 194.732 154.815 196.001 153.25 196.001C152.242 196 151.4 195.445 150.897 194.653ZM157.5 210.167C155.935 210.167 154.667 208.898 154.667 207.333C154.667 205.769 155.935 204.5 157.5 204.5C159.065 204.5 160.333 205.769 160.333 207.333C160.333 208.898 159.065 210.167 157.5 210.167Z" fill="white"/>
<defs>
<linearGradient id="paint0_linear_302_50" x1="140" y1="0" x2="140" y2="280" gradientUnits="userSpaceOnUse">
<stop stop-color="#DA6B6B"/>
<stop offset="1" stop-color="#EC7BEE"/>
</linearGradient>
</defs>
</svg>
