<svg width="187" height="192" viewBox="0 0 187 192" fill="none" xmlns="http://www.w3.org/2000/svg">
<path fill-rule="evenodd" clip-rule="evenodd" d="M93.5 191.452C145.139 191.452 187 148.594 187 95.7262C187 93.7762 186.943 91.8398 186.831 89.9187C184.167 131.699 150.376 164.738 109.083 164.738C66.0511 164.738 31.1666 128.857 31.1666 84.5953C31.1666 40.3336 66.0511 4.45241 109.083 4.45241C115.855 4.45241 122.425 5.341 128.689 7.01098C117.827 2.49036 105.948 0 93.5 0C41.8614 0 0 42.8581 0 95.7262C0 148.594 41.8614 191.452 93.5 191.452ZM44.3798 59.031C44.2965 59.3262 44.2151 59.6223 44.1355 59.9195C34.514 95.8273 55.1463 132.555 90.2191 141.952C125.292 151.35 161.524 129.859 171.145 93.9516C179.93 61.1648 163.492 27.6947 133.869 14.97C139.131 19.1764 143.825 24.3513 147.665 30.4205C165.127 58.0173 158.317 93.6538 132.456 110.017C106.595 126.38 71.4752 117.273 54.014 89.6762C47.9249 80.0527 44.7873 69.4516 44.3798 59.031ZM115.253 87.2798C102.182 100.351 82.4654 102.599 67.5364 93.8889C70.3261 94.5605 73.2638 94.8626 76.287 94.74C93.1704 94.0552 106.325 80.383 105.669 64.2023C105.013 48.0215 90.7938 35.4596 73.9104 36.1444C64.5345 36.5247 56.3084 40.9102 50.959 47.5064C52.9015 42.0412 56.0735 36.8928 60.47 32.4963C75.9583 17.0081 100.778 16.7161 115.906 31.8441C131.034 46.9722 130.742 71.7916 115.253 87.2798Z" fill="#38B2F6"/>
</svg>
